<?xml version="1.0" encoding="UTF-8" standalone="no"?>
<svg
   xmlns:dc="http://purl.org/dc/elements/1.1/"
   xmlns:cc="http://creativecommons.org/ns#"
   xmlns:rdf="http://www.w3.org/1999/02/22-rdf-syntax-ns#"
   xmlns:svg="http://www.w3.org/2000/svg"
   xmlns="http://www.w3.org/2000/svg"
   xmlns:sodipodi="http://sodipodi.sourceforge.net/DTD/sodipodi-0.dtd"
   xmlns:inkscape="http://www.inkscape.org/namespaces/inkscape"
   width="24"
   height="24"
   viewBox="0 0 24 24"
   version="1.1"
   id="svg1704"
   sodipodi:docname="wiki.svg"
   inkscape:version="0.92.4 5da689c313, 2019-01-14">
  <metadata
     id="metadata1710">
    <rdf:RDF>
      <cc:Work
         rdf:about="">
        <dc:format>image/svg+xml</dc:format>
        <dc:type
           rdf:resource="http://purl.org/dc/dcmitype/StillImage" />
        <dc:title />
      </cc:Work>
    </rdf:RDF>
  </metadata>
  <defs
     id="defs1708" />
  <sodipodi:namedview
     pagecolor="#ffffff"
     bordercolor="#666666"
     borderopacity="1"
     objecttolerance="10"
     gridtolerance="10"
     guidetolerance="10"
     inkscape:pageopacity="0"
     inkscape:pageshadow="2"
     inkscape:window-width="1680"
     inkscape:window-height="874"
     id="namedview1706"
     showgrid="false"
     inkscape:pagecheckerboard="true"
     inkscape:zoom="5.6568542"
     inkscape:cx="-11.261501"
     inkscape:cy="27.846291"
     inkscape:window-x="0"
     inkscape:window-y="27"
     inkscape:window-maximized="1"
     inkscape:current-layer="svg1704"
     showguides="true"
     inkscape:guide-bbox="true" />
  <path
     inkscape:connector-curvature="0"
     d="m 12.649285,-18.63877 h 7 v 1.5 h -7 z m 0,-2.5 h 7 v 1.5 h -7 z m 0,5 h 7 v 1.5 h -7 z m 8,-10.5 H 2.6492848 c -1.1,0 -1.99999996,0.9 -1.99999996,2 v 13 c 0,1.1 0.89999996,1.9999998 1.99999996,1.9999998 H 20.649285 c 1.1,0 2,-0.8999998 2,-1.9999998 v -13 c 0,-1.1 -0.9,-2 -2,-2 z m 0,15 h -9 v -13 h 9 z"
     id="path1702-6" />
  <path
     inkscape:connector-curvature="0"
     id="path3202-7-9"
     d="m 4.2792969,-23.707031 c 0,0 -0.3402159,3.72e-4 -0.5097657,0.169922 -0.1695487,0.169549 -0.1699218,0.509765 -0.1699218,0.509765 v 1.695313 c 0,0 3.731e-4,0.338262 0.1699218,0.507812 0.1695498,0.169549 0.5097657,0.169922 0.5097657,0.169922 h 1.6953125 c 0,0 0.3382627,-3.73e-4 0.5078125,-0.169922 0.1695488,-0.16955 0.1699219,-0.507812 0.1699219,-0.507812 v -1.695313 c 0,0 -3.731e-4,-0.340216 -0.1699219,-0.509765 -0.1695498,-0.16955 -0.5078125,-0.169922 -0.5078125,-0.169922 z m 3.5605469,0 c 0,0 -0.3402159,3.72e-4 -0.5097657,0.169922 -0.1695497,0.169549 -0.1699219,0.509765 -0.1699219,0.509765 v 1.695313 c 0,0 3.722e-4,0.338262 0.1699219,0.507812 0.1695498,0.169549 0.5097657,0.169922 0.5097657,0.169922 h 1.6953124 c 0,0 0.3382638,-3.73e-4 0.5078128,-0.169922 0.16955,-0.16955 0.169922,-0.507812 0.169922,-0.507812 v -1.695313 c 0,0 -3.72e-4,-0.340216 -0.169922,-0.509765 -0.169549,-0.16955 -0.5078128,-0.169922 -0.5078128,-0.169922 z m -3.5605469,3.560547 c 0,0 -0.3402159,3.72e-4 -0.5097657,0.169922 -0.1695487,0.169549 -0.1699218,0.509765 -0.1699218,0.509765 v 6.441406 c 0,0 3.731e-4,0.340216 0.1699218,0.509766 0.1695498,0.169549 0.5097657,0.169922 0.5097657,0.169922 h 1.6953125 c 0,0 0.3382627,-3.73e-4 0.5078125,-0.169922 0.1695488,-0.16955 0.1699219,-0.509766 0.1699219,-0.509766 v -4.238281 c 0,0 3.721e-4,-0.338264 0.1699218,-0.507812 0.1695498,-0.16955 0.5078125,-0.169922 0.5078125,-0.169922 h 2.2050781 c 0,0 0.3382638,-3.72e-4 0.5078128,-0.169922 0.16955,-0.169549 0.169922,-0.507813 0.169922,-0.507813 v -0.847656 c 0,0 -3.72e-4,-0.340216 -0.169922,-0.509765 -0.169549,-0.16955 -0.5078128,-0.169922 -0.5078128,-0.169922 z m 3.7285156,2.882812 c 0,0 -0.3382637,3.73e-4 -0.5078125,0.169922 -0.1695498,0.16955 -0.1699219,0.507812 -0.1699219,0.507812 v 3.560547 c 0,0 3.721e-4,0.340216 0.1699219,0.509766 0.1695488,0.169549 0.5078125,0.169922 0.5078125,0.169922 h 1.5273437 c 0,0 0.3382638,-3.73e-4 0.5078128,-0.169922 0.16955,-0.16955 0.169922,-0.509766 0.169922,-0.509766 v -3.560547 c 0,0 -3.72e-4,-0.338262 -0.169922,-0.507812 -0.169549,-0.169549 -0.5078128,-0.169922 -0.5078128,-0.169922 z"
     style="fill:#ffffff;fill-opacity:1;fill-rule:evenodd;stroke:#000000;stroke-width:0.17185456px;stroke-linecap:butt;stroke-linejoin:miter;stroke-opacity:1" />
  <path
     inkscape:connector-curvature="0"
     d="m -14.690803,-8.4082544 h 7.0000003 v 1.5 h -7.0000003 z m 0,-2.4999996 h 7.0000003 v 1.4999996 h -7.0000003 z m 0,4.9999996 h 7.0000003 v 1.5 H -14.690803 Z M -6.6908027,-16.408254 H -24.690803 c -1.1,0 -2,0.9 -2,2 v 12.9999995 c 0,1.09999997 0.9,1.99999997 2,1.99999997 h 18.0000003 c 1.1,0 2,-0.9 2,-1.99999997 V -14.408254 c 0,-1.1 -0.9,-2 -2,-2 z m 0,14.9999995 H -15.690803 V -14.408254 h 9.0000003 z"
     id="path1702-6-2" />
  <path
     inkscape:connector-curvature="0"
     id="path3202-7-9-3"
     d="m -23.060791,-13.476515 c 0,0 -0.340216,3.72e-4 -0.509765,0.169922 -0.169549,0.169549 -0.169922,0.509765 -0.169922,0.509765 v 1.695313 c 0,0 3.73e-4,0.338262 0.169922,0.507812 0.169549,0.169549 0.509765,0.169922 0.509765,0.169922 h 1.695313 c 0,0 0.338262,-3.73e-4 0.507812,-0.169922 0.169549,-0.16955 0.169922,-0.507812 0.169922,-0.507812 v -1.695313 c 0,0 -3.73e-4,-0.340216 -0.169922,-0.509765 -0.16955,-0.16955 -0.507812,-0.169922 -0.507812,-0.169922 z m 3.560547,0 c 0,0 -0.340216,3.72e-4 -0.509766,0.169922 -0.169549,0.169549 -0.169921,0.509765 -0.169921,0.509765 v 1.695313 c 0,0 3.72e-4,0.338262 0.169921,0.507812 0.16955,0.169549 0.509766,0.169922 0.509766,0.169922 h 1.695313 c 0,0 0.338263,-3.73e-4 0.507812,-0.169922 0.16955,-0.16955 0.169922,-0.507812 0.169922,-0.507812 v -1.695313 c 0,0 -3.72e-4,-0.340216 -0.169922,-0.509765 -0.169549,-0.16955 -0.507812,-0.169922 -0.507812,-0.169922 z m -3.560547,3.5605466 c 0,0 -0.340216,3.72e-4 -0.509765,0.169922 -0.169549,0.169549 -0.169922,0.509765 -0.169922,0.509765 v 6.4414059 c 0,0 3.73e-4,0.340216 0.169922,0.509766 0.169549,0.169549 0.509765,0.169922 0.509765,0.169922 h 1.695313 c 0,0 0.338262,-3.73e-4 0.507812,-0.169922 0.169549,-0.16955 0.169922,-0.509766 0.169922,-0.509766 v -4.2382809 c 0,0 3.72e-4,-0.338264 0.169922,-0.507812 0.16955,-0.16955 0.507812,-0.169922 0.507812,-0.169922 h 2.205079 c 0,0 0.338263,-3.72e-4 0.507812,-0.169922 0.16955,-0.169549 0.169922,-0.507813 0.169922,-0.507813 v -0.847656 c 0,0 -3.72e-4,-0.340216 -0.169922,-0.509765 -0.169549,-0.16955 -0.507812,-0.169922 -0.507812,-0.169922 z m 3.728516,2.882812 c 0,0 -0.338264,3.73e-4 -0.507813,0.169922 -0.169549,0.16955 -0.169922,0.507812 -0.169922,0.507812 v 3.5605469 c 0,0 3.73e-4,0.340216 0.169922,0.509766 0.169549,0.169549 0.507813,0.169922 0.507813,0.169922 h 1.527344 c 0,0 0.338263,-3.73e-4 0.507812,-0.169922 0.16955,-0.16955 0.169922,-0.509766 0.169922,-0.509766 v -3.5605469 c 0,0 -3.72e-4,-0.338262 -0.169922,-0.507812 -0.169549,-0.169549 -0.507812,-0.169922 -0.507812,-0.169922 z"
     style="fill:#ffffff;fill-opacity:1;fill-rule:evenodd;stroke:#000000;stroke-width:0.8;stroke-linecap:butt;stroke-linejoin:miter;stroke-miterlimit:4;stroke-dasharray:none;stroke-opacity:1" />
  <path
     d="M 3,4 C 1.9,4 1,4.900001 1,6 v 13 c 0,1.099999 0.9,2 2,2 h 18 c 1.1,0 2,-0.900001 2,-2 V 6 C 23,4.900001 22.1,4 21,4 Z m 8.986328,2 H 21 V 19 H 11.986328 V 17.994141 6.306641 Z M 4.630859,7.332032 h 1.695313 c 0,0 0.04578,4.8e-4 0.111328,0.01367 0.06554,0.01319 0.122451,0.04823 0.113281,0.03906 -0.0097,-0.0097 0.02581,0.04713 0.03906,0.113281 0.01325,0.06615 0.01367,0.113281 0.01367,0.113281 v 1.695313 c 0,0 -4.82e-4,0.04578 -0.01367,0.111328 -0.01319,0.06555 -0.04823,0.122451 -0.03906,0.113281 0.0092,-0.0092 -0.04774,0.02587 -0.113281,0.03906 -0.06555,0.01319 -0.111328,0.01367 -0.111328,0.01367 H 4.630859 c 0,0 -0.04713,-4.21e-4 -0.113281,-0.01367 -0.06615,-0.01325 -0.122995,-0.04878 -0.113281,-0.03906 0.0092,0.0092 -0.02587,-0.04774 -0.03906,-0.113281 C 4.352047,9.352415 4.351567,9.306637 4.351567,9.306637 V 7.611324 c 0,0 4.21e-4,-0.04713 0.01367,-0.113281 0.01325,-0.06615 0.04878,-0.122995 0.03906,-0.113281 -0.0097,0.0097 0.04713,-0.02581 0.113281,-0.03906 0.06615,-0.01325 0.113281,-0.01367 0.113281,-0.01367 z m 3.560547,0 h 1.695313 c 0,0 0.04578,4.8e-4 0.111328,0.01367 0.06554,0.01319 0.122452,0.04823 0.113281,0.03906 -0.0097,-0.0097 0.02581,0.04713 0.03906,0.113281 0.01325,0.06615 0.01367,0.113282 0.01367,0.113281 v 1.695313 c 0,0 -4.81e-4,0.04578 -0.01367,0.111328 -0.01319,0.06555 -0.04823,0.122451 -0.03906,0.113281 0.0092,-0.0092 -0.04774,0.02587 -0.113281,0.03906 -0.06555,0.01319 -0.111328,0.01367 -0.111328,0.01367 H 8.191406 c 0,0 -0.04713,-4.21e-4 -0.113281,-0.01367 -0.06615,-0.01325 -0.122994,-0.04877 -0.113281,-0.03906 0.0092,0.0092 -0.02587,-0.04774 -0.03906,-0.113281 C 7.912594,9.352415 7.912114,9.306637 7.912114,9.306637 V 7.611324 c 0,0 4.21e-4,-0.04713 0.01367,-0.113281 0.01325,-0.06615 0.04878,-0.122995 0.03906,-0.113281 -0.0097,0.0097 0.04713,-0.02581 0.113281,-0.03906 0.06615,-0.01325 0.113281,-0.01367 0.113281,-0.01367 z M 13,9.5 V 11 h 7 V 9.5 Z m -8.369141,1.392578 h 5.25586 c 0,0 0.04578,4.82e-4 0.111328,0.01367 0.06554,0.01319 0.122452,0.04823 0.113281,0.03906 -0.0097,-0.0097 0.02581,0.04713 0.03906,0.113281 0.01325,0.06615 0.01367,0.113281 0.01367,0.113281 v 0.847657 c 0,0 -4.81e-4,0.04578 -0.01367,0.111328 -0.01319,0.06555 -0.04823,0.122452 -0.03906,0.113281 0.0092,-0.0092 -0.04774,0.02587 -0.113281,0.03906 -0.06555,0.01319 -0.111328,0.01367 -0.111328,0.01367 H 7.68164 c 0,0 -0.123557,-8.7e-5 -0.269531,0.0293 -0.145974,0.02938 -0.342765,0.07909 -0.521484,0.257813 -0.178722,0.178719 -0.228432,0.37551 -0.257813,0.521484 -0.02938,0.145974 -0.0293,0.269531 -0.0293,0.269531 v 4.238282 c 0,0 -4.21e-4,0.04713 -0.01367,0.113281 -0.01325,0.06615 -0.04878,0.122994 -0.03906,0.113281 0.0092,-0.0092 -0.04774,0.02587 -0.113281,0.03906 -0.06555,0.01319 -0.111328,0.01367 -0.111328,0.01367 H 4.63086 c 0,0 -0.04713,-4.19e-4 -0.113281,-0.01367 -0.06615,-0.01325 -0.122995,-0.04878 -0.113281,-0.03906 0.0097,0.0097 -0.02581,-0.04713 -0.03906,-0.113281 -0.01325,-0.06615 -0.01367,-0.113281 -0.01367,-0.113281 v -6.441407 c 0,0 4.21e-4,-0.04713 0.01367,-0.113281 0.01325,-0.06615 0.04878,-0.122995 0.03906,-0.113281 -0.0097,0.0097 0.04713,-0.02581 0.113281,-0.03906 0.06615,-0.01325 0.113281,-0.01367 0.113281,-0.01367 z M 13,12 v 1.5 h 7 V 12 Z m -2.748047,1.027344 v 0.01953 c -0.01003,-0.0023 -0.02145,-0.0075 -0.03125,-0.0098 0.0098,-0.0022 0.02121,-0.0074 0.03125,-0.0098 z m -1.892578,0.748047 h 1.527344 c 0,0 0.04578,4.81e-4 0.111328,0.01367 0.06555,0.01319 0.122452,0.04823 0.113281,0.03906 -0.0092,-0.0092 0.02587,0.04774 0.03906,0.113282 0.01319,0.06555 0.01367,0.111328 0.01367,0.111328 v 3.560547 c 0,0 -4.19e-4,0.04713 -0.01367,0.113281 -0.01325,0.06615 -0.04877,0.122993 -0.03906,0.113281 0.0092,-0.0092 -0.04774,0.02587 -0.113281,0.03906 -0.06555,0.01319 -0.111328,0.01367 -0.111328,0.01367 H 8.359375 c 0,0 -0.04578,-4.8e-4 -0.111328,-0.01367 -0.06555,-0.01319 -0.122452,-0.04823 -0.113281,-0.03906 0.0097,0.0097 -0.02581,-0.04713 -0.03906,-0.113281 -0.01325,-0.06615 -0.01367,-0.113281 -0.01367,-0.113281 v -3.560547 c 0,0 4.81e-4,-0.04578 0.01367,-0.111328 0.01319,-0.06555 0.04823,-0.122451 0.03906,-0.113282 -0.0092,0.0092 0.04774,-0.02587 0.113281,-0.03906 0.06555,-0.01319 0.111328,-0.01367 0.111328,-0.01367 z M 13,14.5 V 16 h 7 v -1.5 z m -5.658203,3.447266 c 0.0033,0.01454 0.01009,0.03182 0.01367,0.04687 h -0.02734 c 0.0036,-0.01509 0.01035,-0.03231 0.01367,-0.04687 z"
     id="path1702-6-2-2"
     inkscape:connector-curvature="0" />
  <path
     d="m -52.133514,-9.0719607 c -1.1,0 -2,0.900001 -2,2 v 13 c 0,1.099999 0.9,2 2,2 h 18 c 1.1,0 2,-0.900001 2,-2 v -13 c 0,-1.099999 -0.9,-2 -2,-2 z m 8.986328,2 h 9.013672 v 13 h -9.013672 v -1.005859 -11.6875 z m -8.029297,0.978516 h 2.951172 v 0.234375 h 0.75 v -0.234375 h 2.59375 v 11.015625 h -6.294922 v -7.5 h 0.357422 v -0.546875 h -0.357422 z m 9.042969,2.521484 v 1.5 h 7 v -1.5 z m -6.248047,0.291016 v 0.6875 h 0.921875 v -0.6875 z m 6.248047,2.208984 v 1.50000001 h 7 V -1.0719607 Z m -5.888672,0.99414101 v 0.9375 h 0.90625 v -0.9375 z m 5.888672,1.50585899 v 1.5 h 7 v -1.5 z"
     id="path1702-6-2-2-9"
     inkscape:connector-curvature="0" />
  <path
     inkscape:connector-curvature="0"
     id="path3202-7-9-3-8-7"
     d="m -50.502717,-6.1406777 c 0,0 -0.340216,3.72e-4 -0.509765,0.169922 -0.169549,0.169549 -0.169922,0.509765 -0.169922,0.509765 v 1.695313 c 0,0 3.73e-4,0.338262 0.169922,0.507812 0.169549,0.169549 0.509765,0.169922 0.509765,0.169922 h 1.695313 c 0,0 0.338262,-3.73e-4 0.507812,-0.169922 0.169549,-0.16955 0.169922,-0.507812 0.169922,-0.507812 v -1.695313 c 0,0 -3.73e-4,-0.340216 -0.169922,-0.509765 -0.16955,-0.16955 -0.507812,-0.169922 -0.507812,-0.169922 z m 3.560547,0 c 0,0 -0.340216,3.72e-4 -0.509766,0.169922 -0.169549,0.169549 -0.169921,0.509765 -0.169921,0.509765 v 1.695313 c 0,0 3.72e-4,0.338262 0.169921,0.507812 0.16955,0.169549 0.509766,0.169922 0.509766,0.169922 h 1.695313 c 0,0 0.338263,-3.73e-4 0.507812,-0.169922 0.16955,-0.16955 0.169922,-0.507812 0.169922,-0.507812 v -1.695313 c 0,0 -3.72e-4,-0.340216 -0.169922,-0.509765 -0.169549,-0.16955 -0.507812,-0.169922 -0.507812,-0.169922 z m -3.560547,3.560546 c 0,0 -0.340216,3.72e-4 -0.509765,0.169922 -0.169549,0.169549 -0.169922,0.509765 -0.169922,0.509765 v 6.441407 c 0,0 3.73e-4,0.340216 0.169922,0.509766 0.169549,0.169549 0.509765,0.169922 0.509765,0.169922 h 1.695313 c 0,0 0.338262,-3.73e-4 0.507812,-0.169922 0.169549,-0.16955 0.169922,-0.509766 0.169922,-0.509766 V 0.30268031 c 0,0 3.72e-4,-0.338264 0.169922,-0.507812 0.16955,-0.16955 0.507812,-0.169922 0.507812,-0.169922 h 2.205079 c 0,0 0.338263,-3.72e-4 0.507812,-0.169922 0.16955,-0.169549 0.169922,-0.50781301 0.169922,-0.50781301 v -0.847656 c 0,0 -3.72e-4,-0.340216 -0.169922,-0.509765 -0.169549,-0.16955 -0.507812,-0.169922 -0.507812,-0.169922 z m 3.728516,2.88281201 c 0,0 -0.338264,3.73e-4 -0.507813,0.169922 -0.169549,0.16955 -0.169922,0.507813 -0.169922,0.507813 V 4.5409623 c 0,0 3.73e-4,0.340215 0.169922,0.509766 0.169549,0.169549 0.507813,0.169922 0.507813,0.169922 h 1.527344 c 0,0 0.338263,-3.73e-4 0.507812,-0.169922 0.16955,-0.169551 0.169922,-0.509766 0.169922,-0.509766 V 0.98041531 c 0,0 -3.72e-4,-0.338263 -0.169922,-0.507813 -0.169549,-0.169549 -0.507812,-0.169922 -0.507812,-0.169922 z"
     style="fill:none;fill-opacity:1;fill-rule:evenodd;stroke:#000000;stroke-width:0.80000001;stroke-linecap:butt;stroke-linejoin:miter;stroke-miterlimit:4;stroke-dasharray:none;stroke-opacity:1" />
  <path
     d="m -26.9375,4.1875 c -1.1,0 -2,0.9 -2,2 v 13 c 0,1.1 0.9,2 2,2 h 17.9999999 c 1.1,0 2,-0.9 2,-2 v -13 c 0,-1.1 -0.9,-2 -2,-2 z m 9,2 h 8.9999999 v 13 H -17.9375 Z m -7.371094,0.9316406 h 1.695313 c 0,0 0.340216,3.721e-4 0.509765,0.1699219 0.169549,0.1695498 0.169922,0.5097656 0.169922,0.5097656 v 1.6953125 c 0,0 -3.73e-4,0.3382628 -0.169922,0.5078124 -0.169549,0.169549 -0.509765,0.169922 -0.509765,0.169922 h -1.695313 c 0,0 -0.338263,-3.73e-4 -0.507812,-0.169922 -0.169549,-0.1695496 -0.169922,-0.5078124 -0.169922,-0.5078124 V 7.7988281 c 0,0 3.73e-4,-0.3402158 0.169922,-0.5097656 0.169549,-0.1695498 0.507812,-0.1699219 0.507812,-0.1699219 z m 3.560547,0 h 1.695313 c 0,0 0.340216,3.721e-4 0.509765,0.1699219 0.16955,0.1695498 0.169922,0.5097656 0.169922,0.5097656 v 1.6953125 c 0,0 -3.72e-4,0.3382628 -0.169922,0.5078124 -0.169549,0.169549 -0.509765,0.169922 -0.509765,0.169922 h -1.695313 c 0,0 -0.338263,-3.73e-4 -0.507812,-0.169922 -0.16955,-0.1695496 -0.169922,-0.5078124 -0.169922,-0.5078124 V 7.7988281 c 0,0 3.72e-4,-0.3402158 0.169922,-0.5097656 0.169549,-0.1695498 0.507812,-0.1699219 0.507812,-0.1699219 z M -16.9375,9.6875 v 1.5 h 6.9999999 v -1.5 z m -8.371094,0.992188 h 5.25586 c 0,-1e-6 0.340216,3.72e-4 0.509765,0.169921 0.16955,0.16955 0.169922,0.509766 0.169922,0.509766 v 0.847656 c 0,0 -3.72e-4,0.338264 -0.169922,0.507813 -0.169549,0.16955 -0.509765,0.169922 -0.509765,0.169922 h -2.203125 c 0,0 -0.340216,3.72e-4 -0.509766,0.169922 -0.169549,0.169547 -0.167969,0.507812 -0.167969,0.507812 v 4.238281 c 0,0 -3.73e-4,0.340216 -0.169922,0.509766 -0.169549,0.169549 -0.509765,0.169922 -0.509765,0.169922 h -1.695313 c 0,0 -0.338263,-3.73e-4 -0.507812,-0.169922 -0.169549,-0.16955 -0.169922,-0.509766 -0.169922,-0.509766 v -6.441406 c 0,0 3.73e-4,-0.340216 0.169922,-0.509766 0.169549,-0.169549 0.507812,-0.169921 0.507812,-0.169921 z M -16.9375,12.1875 v 1.5 h 6.9999999 v -1.5 z m -4.640625,1.375 h 1.525391 c 0,0 0.340216,3.73e-4 0.509765,0.169922 0.16955,0.16955 0.169922,0.507812 0.169922,0.507812 v 3.560547 c 0,0 -3.72e-4,0.340216 -0.169922,0.509766 -0.169549,0.169549 -0.509765,0.169922 -0.509765,0.169922 h -1.525391 c 0,0 -0.338264,-3.73e-4 -0.507813,-0.169922 -0.169549,-0.16955 -0.169921,-0.509766 -0.169921,-0.509766 v -3.560547 c 0,0 3.72e-4,-0.338262 0.169921,-0.507812 0.169549,-0.169549 0.507813,-0.169922 0.507813,-0.169922 z m 4.640625,1.125 v 1.5 h 6.9999999 v -1.5 z"
     id="path1702"
     inkscape:connector-curvature="0" />
</svg>
