<?xml version="1.0" encoding="UTF-8"?>
<svg width="3744.3" height="145.36" version="1.1" xmlns="http://www.w3.org/2000/svg" xmlns:cc="http://creativecommons.org/ns#" xmlns:dc="http://purl.org/dc/elements/1.1/" xmlns:rdf="http://www.w3.org/1999/02/22-rdf-syntax-ns#"><metadata><rdf:RDF><cc:Work rdf:about=""><dc:format>image/svg+xml</dc:format><dc:type rdf:resource="http://purl.org/dc/dcmitype/StillImage"/><dc:title/></cc:Work></rdf:RDF></metadata><defs><clipPath id="a"><path d="m1997.6 2.6582-2058.9 0.43816-0.14605 68.276c69.694 6.9748 139.39 13.949 273.74 10.304 134.35-3.6453 385.84-25.012 532.36-32.176 146.52-7.1637 327.83 0.17907 448.63 0.26524 71.076 0.04202 283.93 14.676 417.92 15.498 133.99 0.82194 260-4.8717 386.02-10.566z" fill-rule="evenodd"/></clipPath></defs><g transform="matrix(1.8187 0 0 1.8187 111.68 -4.8346)" clip-path="url(#a)" stroke-width=".6"><path d="m966 126.44-43 40 115 12z" fill="#d54935" stroke="#d54935"/><path d="m923 166.44 102 107 13-95z" fill="#bf3e46" stroke="#bf3e46"/><path d="m1038 178.44 4-80-76 28z" fill="#dd4d2e" stroke="#dd4d2e"/><path d="m923 166.44 55 132 47-25z" fill="#b2384f" stroke="#b2384f"/><path d="m923 166.44-60 124 115 8z" fill="#b43b50" stroke="#b43b50"/><path d="m841 94.443 6 99 76-27z" fill="#db5338" stroke="#db5338"/><path d="m1092 263.44 22-53-76-32z" fill="#b5394d" stroke="#b5394d"/><path d="m1038 178.44 63-72-59-8z" fill="#dd4d2e" stroke="#dd4d2e"/><path d="m1025 273.44 67-10-54-85z" fill="#ad3652" stroke="#ad3652"/><path d="m1055 366.44 37-103-67 10z" fill="#ad3652" stroke="#ad3652"/><path d="m1114 210.44-13-104-63 72z" fill="#cc443c" stroke="#cc443c"/><path d="m978 298.44 77 68-30-93z" fill="#af3750" stroke="#af3750"/><path d="m863 290.44 98 39 17-31z" fill="#b43a4f" stroke="#b43a4f"/><path d="m847 193.44 16 97 60-124z" fill="#be444e" stroke="#be444e"/><path d="m1042 98.443-39-71-37 99z" fill="#eb6739" stroke="#eb6739"/><path d="m966 126.44-125-32 82 72z" fill="#e3552c" stroke="#e3552c"/><path d="m1042-21.557-39 49 39 71z" fill="#f1855d" stroke="#f1855d"/><path d="m873 40.443-32 54 125 32z" fill="#ef6b3a" stroke="#ef6b3a"/><path d="m1003 27.443-82-11 45 110z" fill="#f27a4b" stroke="#f27a4b"/><path d="m921 16.443-48 24 93 86z" fill="#f37a4a" stroke="#f37a4a"/><path d="m863 290.44 36 58 62-19z" fill="#b43d51" stroke="#b43d51"/><path d="m784 124.44 8 58 55 11z" fill="#d55543" stroke="#d55543"/><path d="m847 193.44-80 93 96 4z" fill="#b54558" stroke="#b54558"/><path d="m863 290.44-60 59 96-1z" fill="#b54256" stroke="#b54256"/><path d="m1114 210.44 97-91-110-13z" fill="#d14739" stroke="#d14739"/><path d="m1092 263.44 80-44-58-9z" fill="#ac3552" stroke="#ac3552"/><path d="m961 329.44 94 37-77-68z" fill="#b13750" stroke="#b13750"/><path d="m1092 263.44 40 66 40-110z" fill="#a93354" stroke="#a93354"/><path d="m899 348.44 156 18-94-37z" fill="#b2384f" stroke="#b2384f"/><path d="m1101 106.44 33-47-92 39z" fill="#e6623b" stroke="#e6623b"/><path d="m1211 119.44-77-60-33 47z" fill="#e15b3a" stroke="#e15b3a"/><path d="m793 42.443-9 82 57-30z" fill="#f17342" stroke="#f17342"/><path d="m841 94.443-57 30 63 69z" fill="#e25a37" stroke="#e25a37"/><path d="m1055 366.44 77-37-40-66z" fill="#ab3453" stroke="#ab3453"/><path d="m1134 59.443-92-81v120z" fill="#ed7d58" stroke="#ed7d58"/><path d="m936-64.557-37 37 22 44z" fill="#fba67d" stroke="#fba67d"/><path d="m873 40.443-80 2 48 52z" fill="#f58253" stroke="#f58253"/><path d="m921 16.443-22-44-26 68z" fill="#fa9b70" stroke="#fa9b70"/><path d="m936-64.557-15 81 82 11z" fill="#faa177" stroke="#faa177"/><path d="m802-17.557-9 60 80-2z" fill="#f99a6e" stroke="#f99a6e"/><path d="m712 196.44 55 90 25-104z" fill="#be4e59" stroke="#be4e59"/><path d="m792 182.44-25 104 80-93z" fill="#bd4b55" stroke="#bd4b55"/><path d="m1172 219.44 39-100-97 91z" fill="#bf3e46" stroke="#bf3e46"/><path d="m1134 59.443-13-99-79 18z" fill="#f09879" stroke="#f09879"/><path d="m1254 189.44-43-70-39 100z" fill="#c03e46" stroke="#c03e46"/><path d="m767 286.44 36 63 60-59z" fill="#b64659" stroke="#b64659"/><path d="m899 348.44-96 1 252 17z" fill="#b43c50" stroke="#b43c50"/><path d="m1211 119.44-47-106-30 46z" fill="#e56f4f" stroke="#e56f4f"/><path d="m899-27.557-97 10 71 58z" fill="#fba57c" stroke="#fba57c"/><path d="m1042-21.557-106-43 67 92z" fill="#f7a27c" stroke="#f7a27c"/><path d="m1042-111.56-106 47 106 43z" fill="#f7a27d" stroke="#f7a27d"/><path d="m1132 329.44 85-32-45-78z" fill="#a63356" stroke="#a63356"/><path d="m1185 354.44 32-57-85 32z" fill="#a63256" stroke="#a63256"/><path d="m1164 13.443-43-53 13 99z" fill="#ed9073" stroke="#ed9073"/><path d="m1055 366.44 130-12-53-25z" fill="#a93454" stroke="#a93454"/><path d="m784 124.44-72 72 80-14z" fill="#d65947" stroke="#d65947"/><path d="m767 286.44-50 66 86-3z" fill="#b64a5e" stroke="#b64a5e"/><path d="m717 98.443-5 98 72-72z" fill="#e36240" stroke="#e36240"/><path d="m793 42.443-76 56 67 26z" fill="#f27645" stroke="#f27645"/><path d="m861-130.56-59 113 97-10z" fill="#fbab83" stroke="#fbab83"/><path d="m1270 263.44-16-74-82 30z" fill="#a93454" stroke="#a93454"/><path d="m1272 27.443-99-51-9 37z" fill="#e9927a" stroke="#e9927a"/><path d="m700 41.443 17 57 76-56z" fill="#f6895a" stroke="#f6895a"/><path d="m712 196.44 1 75 54 15z" fill="#b74d60" stroke="#b74d60"/><path d="m1164 13.443 9-37-52-16z" fill="#ed9d83" stroke="#ed9d83"/><path d="m1263 87.443-99-74 47 106z" fill="#e1684b" stroke="#e1684b"/><path d="m1254 189.44 9-102-52 32z" fill="#d14738" stroke="#d14738"/><path d="m1254 189.44 95 2-86-104z" fill="#c44043" stroke="#c44043"/><path d="m1217 297.44 53-34-98-44z" fill="#a33158" stroke="#a33158"/><path d="m1296 376.44-26-113-53 34z" fill="#a13059" stroke="#a13059"/><path d="m1121-39.557-79-72v90z" fill="#f3a080" stroke="#f3a080"/><path d="m936-64.557-75-66 38 103z" fill="#fba87f" stroke="#fba87f"/><path d="m1105-128.56-63 17 79 72z" fill="#f29f81" stroke="#f29f81"/><path d="m1042-111.56-111-10 5 57z" fill="#f9a37b" stroke="#f9a37b"/><path d="m713 271.44 4 81 50-66z" fill="#b74d60" stroke="#b74d60"/><path d="m803 349.44-86 3 338 14z" fill="#b54255" stroke="#b54255"/><path d="m802-17.557-102 59 93 1z" fill="#fa9e73" stroke="#fa9e73"/><path d="m624 169.44 19 90 69-63z" fill="#c6595e" stroke="#c6595e"/><path d="m712 196.44-69 63 70 12z" fill="#b75064" stroke="#b75064"/><path d="m713 271.44-67 82 71-1z" fill="#b75064" stroke="#b75064"/><path d="m714-59.557-14 101 102-59z" fill="#fcb48e" stroke="#fcb48e"/><path d="m1199-114.56-94-14 16 89z" fill="#ee9e83" stroke="#ee9e83"/><path d="m1263 87.443 9-60-108-14z" fill="#e37a61" stroke="#e37a61"/><path d="m1331 45.443-59-18-9 60z" fill="#df725c" stroke="#df725c"/><path d="m931-121.56-70-9 75 66z" fill="#fba77e" stroke="#fba77e"/><path d="m789-154.56 72 24 70 9z" fill="#fbab83" stroke="#fbab83"/><path d="m1042-111.56 63-17-174 7z" fill="#f6a17e" stroke="#f6a17e"/><path d="m1199-114.56-78 75 52 16z" fill="#ec9d84" stroke="#ec9d84"/><path d="m624 169.44 88 27 5-98z" fill="#de634a" stroke="#de634a"/><path d="m600 108.44 24 61 93-71z" fill="#eb6d43" stroke="#eb6d43"/><path d="m700 41.443-71-10 88 67z" fill="#f79062" stroke="#f79062"/><path d="m789-154.56-75 95 88 42z" fill="#fcb28b" stroke="#fcb28b"/><path d="m1272 27.443-18-81-81 30z" fill="#e89b87" stroke="#e89b87"/><path d="m1270 263.44 79-72-95-2z" fill="#aa3454" stroke="#aa3454"/><path d="m1272 27.443 61-73-79-8z" fill="#e49989" stroke="#e49989"/><path d="m1352 289.44-3-98-79 72z" fill="#9d2e5b" stroke="#9d2e5b"/><path d="m1254-53.557-55-61-26 91z" fill="#e99c86" stroke="#e99c86"/><path d="m1185 354.44 111 22-79-79z" fill="#a23158" stroke="#a23158"/><path d="m1055 366.44 241 10-111-22z" fill="#a63256" stroke="#a63256"/><path d="m483 373.44 813 3-241-10z" fill="#b3394e" stroke="#b3394e"/><path d="m717 352.44-234 21 572-7z" fill="#b64b5f" stroke="#b64b5f"/><path d="m643 259.44 3 94 67-82z" fill="#b75366" stroke="#b75366"/><path d="m562 344.44 84 9-3-94z" fill="#b8576a" stroke="#b8576a"/><path d="m1371 87.443-40-42-68 42z" fill="#db6550" stroke="#db6550"/><path d="m631-31.557-2 63 71 10z" fill="#fbab84" stroke="#fbab84"/><path d="m624 169.44-53 82 72 8z" fill="#bd5a67" stroke="#bd5a67"/><path d="m629 31.443-29 77 117-10z" fill="#f58556" stroke="#f58556"/><path d="m1296 376.44 56-87-82-26z" fill="#9e2f5a" stroke="#9e2f5a"/><path d="m861-130.56-72-24 13 137z" fill="#fbae87" stroke="#fbae87"/><path d="m714-59.557-83 28 69 73z" fill="#fcb994" stroke="#fcb994"/><path d="m1105-128.56-316-26 142 33z" fill="#faa47b" stroke="#faa47b"/><path d="m1331 45.443 2-91-61 73z" fill="#e18c7c" stroke="#e18c7c"/><path d="m1349 191.44 22-104h-108z" fill="#d14739" stroke="#d14739"/><path d="m1425 142.44-54-55-22 104z" fill="#c54141" stroke="#c54141"/><path d="m565 18.443v96l35-6z" fill="#f68a5b" stroke="#f68a5b"/><path d="m689-131.56-58 100 83-28z" fill="#fcb994" stroke="#fcb994"/><path d="m545 210.44 26 41 53-82z" fill="#c66065" stroke="#c66065"/><path d="m1352 289.44 48-74-51-24z" fill="#9d2f5b" stroke="#9d2f5b"/><path d="m1296 376.44 74-52-18-35z" fill="#9c2e5c" stroke="#9c2e5c"/><path d="m600 108.44-35 6 59 55z" fill="#ea6f49" stroke="#ea6f49"/><path d="m565 18.443 35 90 29-77z" fill="#f9996d" stroke="#f9996d"/><path d="m1254-53.557 43-46-98-15z" fill="#e79a88" stroke="#e79a88"/><path d="m1413-53.557-80 8-2 91z" fill="#df978c" stroke="#df978c"/><path d="m1443 265.44-43-50-48 74z" fill="#982d5e" stroke="#982d5e"/><path d="m1333-45.557-36-54-43 46z" fill="#e4998a" stroke="#e4998a"/><path d="m789-154.56-100 23 25 72z" fill="#fcb58f" stroke="#fcb58f"/><path d="m565 114.44-20 96 79-41z" fill="#db6957" stroke="#db6957"/><path d="m565 114.44-83 77 63 19z" fill="#d86c5e" stroke="#d86c5e"/><path d="m631-31.557-66 50 64 13z" fill="#fcb48e" stroke="#fcb48e"/><path d="m577-38.557-12 57 66-50z" fill="#fcbf9c" stroke="#fcbf9c"/><path d="m482 246.44 80 98 9-93z" fill="#b95d71" stroke="#b95d71"/><path d="m571 251.44-9 93 81-85z" fill="#b8596c" stroke="#b8596c"/><path d="m1371 87.443 70-25-110-17z" fill="#d86858" stroke="#d86858"/><path d="m1400 215.44 25-73-76 49z" fill="#b2384f" stroke="#b2384f"/><path d="m1520 188.44-95-46-25 73z" fill="#b03650" stroke="#b03650"/><path d="m652-139.56-75 101 54 7z" fill="#fcbd9a" stroke="#fcbd9a"/><path d="m689-131.56-37-8-21 108z" fill="#fcbb96" stroke="#fcbb96"/><path d="m789-154.56-137 15 37 8z" fill="#fcb691" stroke="#fcb691"/><path d="m1333-45.557-10-87-26 33z" fill="#e2988a" stroke="#e2988a"/><path d="m1297-99.557 26-33-124 18z" fill="#e59a89" stroke="#e59a89"/><path d="m1199-114.56 124-18-218 4z" fill="#e99c86" stroke="#e99c86"/><path d="m1105-128.56 307-27-623 1z" fill="#f09f81" stroke="#f09f81"/><path d="m1413-53.557-90-79 10 87z" fill="#e0978c" stroke="#e0978c"/><path d="m1370 324.44 73-59-91 24z" fill="#992d5e" stroke="#992d5e"/><path d="m1425 142.44 16-80-70 25z" fill="#d25244" stroke="#d25244"/><path d="m1483 10.443-42 52 69 59z" fill="#d2665d" stroke="#d2665d"/><path d="m1296 376.44 134-22-60-30z" fill="#9a2e5d" stroke="#9a2e5d"/><path d="m1370 324.44 60 30 13-89z" fill="#982c5f" stroke="#982c5f"/><path d="m1441 62.443-28-116-82 99z" fill="#dc8479" stroke="#dc8479"/><path d="m545 210.44-63 36 89 5z" fill="#ba5f71" stroke="#ba5f71"/><path d="m444 122.44 38 69 83-77z" fill="#e67557" stroke="#e67557"/><path d="m444 122.44 121-8-107-111z" fill="#f79164" stroke="#f79164"/><path d="m482 191.44v55l63-36z" fill="#c4656e" stroke="#c4656e"/><path d="m577-38.557-83 16 71 41z" fill="#fcc3a1" stroke="#fcc3a1"/><path d="m522-108.56-28 86 83-16z" fill="#fcc4a3" stroke="#fcc4a3"/><path d="m482 246.44 1 127 79-29z" fill="#b96074" stroke="#b96074"/><path d="m562 344.44-79 29 163-20z" fill="#b85b6f" stroke="#b85b6f"/><path d="m646 353.44-163 20 234-21z" fill="#b8576a" stroke="#b8576a"/><path d="m1441 62.443 42-52-70-64z" fill="#d98a83" stroke="#d98a83"/><path d="m1510 121.44-69-59-16 80z" fill="#cd493f" stroke="#cd493f"/><path d="m1510 121.44-85 21 95 46z" fill="#bb3c48" stroke="#bb3c48"/><path d="m1520 188.44-120 27 43 50z" fill="#9c2e5c" stroke="#9c2e5c"/><path d="m458 3.443 107 111v-96z" fill="#faa379" stroke="#faa379"/><path d="m482 191.44-69-5 69 60z" fill="#c86a6f" stroke="#c86a6f"/><path d="m482 246.44-80 42 81 85z" fill="#b96479" stroke="#b96479"/><path d="m1539 282.44-19-94-77 77z" fill="#922a61" stroke="#922a61"/><path d="m494-22.557-36 26 107 15z" fill="#fcc09c" stroke="#fcc09c"/><path d="m652-139.56-130 31 55 70z" fill="#fcc09d" stroke="#fcc09d"/><path d="m1413-53.557-1-102-89 23z" fill="#de968e" stroke="#de968e"/><path d="m1323-132.56 89-23-307 27z" fill="#e59a89" stroke="#e59a89"/><path d="m1517-118.56-105-37 1 102z" fill="#da9490" stroke="#da9490"/><path d="m410-20.557 48 24 36-26z" fill="#fccaaa" stroke="#fccaaa"/><path d="m1430 354.44 80 14-67-103z" fill="#942b60" stroke="#942b60"/><path d="m1296 376.44 214-8-80-14z" fill="#982c5f" stroke="#982c5f"/><path d="m414 111.44-1 75 31-64z" fill="#e87c5c" stroke="#e87c5c"/><path d="m444 122.44-31 64 69 5z" fill="#dc7463" stroke="#dc7463"/><path d="m1510 368.44 29-86-96-17z" fill="#922a61" stroke="#922a61"/><path d="m1520 188.44 55-53-65-14z" fill="#b93b4a" stroke="#b93b4a"/><path d="m413 30.443 1 81 30 11z" fill="#f89164" stroke="#f89164"/><path d="m522-108.56-35 2 7 84z" fill="#fcc7a5" stroke="#fcc7a5"/><path d="m458 3.443-45 27 31 92z" fill="#fba67c" stroke="#fba67c"/><path d="m334-154.56 153 48 35-2z" fill="#fccbaa" stroke="#fccbaa"/><path d="m413 186.44-11 102 80-42z" fill="#b9667a" stroke="#b9667a"/><path d="m387 329.44 15-41-113 10z" fill="#ba6c81" stroke="#ba6c81"/><path d="m328 164.44 74 124 11-102z" fill="#c76f78" stroke="#c76f78"/><path d="m410-20.557 3 51 45-27z" fill="#fcc3a1" stroke="#fcc3a1"/><path d="m1586 283.44-10-93-37 92z" fill="#8d2964" stroke="#8d2964"/><path d="m1539 282.44 37-92-56-2z" fill="#982c5f" stroke="#982c5f"/><path d="m1510 121.44 102-101-129-10z" fill="#d06d68" stroke="#d06d68"/><path d="m1483 10.443 55-73-125 9z" fill="#d79491" stroke="#d79491"/><path d="m1576 190.44-1-55-55 53z" fill="#ae3551" stroke="#ae3551"/><path d="m336 130.44 77 56 1-75z" fill="#e87e61" stroke="#e87e61"/><path d="m487-106.56-77 86 84-2z" fill="#fcc9a9" stroke="#fcc9a9"/><path d="m402 288.44-15 41 96 44z" fill="#b9677b" stroke="#b9677b"/><path d="m336 130.44 78-19-1-81z" fill="#f89366" stroke="#f89366"/><path d="m1562-63.557-24 1 74 83z" fill="#d19195" stroke="#d19195"/><path d="m1664 52.443-52-32-37 115z" fill="#c95e5f" stroke="#c95e5f"/><path d="m1594 354.44-8-71-47-1z" fill="#8d2964" stroke="#8d2964"/><path d="m1538-62.557-21-56-104 65z" fill="#d79392" stroke="#d79392"/><path d="m1538-62.557 24-1-45-55z" fill="#d39294" stroke="#d39294"/><path d="m1612 20.443-74-83-55 73z" fill="#d29193" stroke="#d29193"/><path d="m1612 20.443-102 101 65 14z" fill="#ca514e" stroke="#ca514e"/><path d="m1673 125.44-98 10 1 55z" fill="#b4394d" stroke="#b4394d"/><path d="m1510 368.44 84-14-55-72z" fill="#8f2963" stroke="#8f2963"/><path d="m288 16.443 48 114 77-100z" fill="#fba980" stroke="#fba980"/><path d="m336 130.44-8 34 85 22z" fill="#e07d69" stroke="#e07d69"/><path d="m1669 262.44-93-72 10 93z" fill="#8b2865" stroke="#8b2865"/><path d="m487-106.56-116-8 39 94z" fill="#fccdad" stroke="#fccdad"/><path d="m410-20.557-96-3 99 54z" fill="#fcccac" stroke="#fcccac"/><path d="m249 94.443 1 92 78-22z" fill="#e6866d" stroke="#e6866d"/><path d="m334-154.56 37 40 116 8z" fill="#fccfaf" stroke="#fccfaf"/><path d="m334-154.56 188 46 130-31z" fill="#fcc6a5" stroke="#fcc6a5"/><path d="m1664 350.44 5-88-83 21z" fill="#892766" stroke="#892766"/><path d="m1689 222.44-16-97-97 65z" fill="#a53257" stroke="#a53257"/><path d="m1562-63.557 30-84-75 29z" fill="#d29194" stroke="#d29194"/><path d="m1517-118.56 75-29-180-8z" fill="#d69393" stroke="#d69393"/><path d="m1660-70.557-68-77-30 84z" fill="#cf9097" stroke="#cf9097"/><path d="m1660-70.557-98 7 50 84z" fill="#ce9097" stroke="#ce9097"/><path d="m371-114.56-57 91 96 3z" fill="#fcd1b3" stroke="#fcd1b3"/><path d="m1673 125.44-9-73-89 83z" fill="#c44749" stroke="#c44749"/><path d="m387 329.44-85 44h181z" fill="#ba697e" stroke="#ba697e"/><path d="m328 164.44-39 134 113-10z" fill="#ba6d83" stroke="#ba6d83"/><path d="m250 186.44 39 112 39-134z" fill="#c57681" stroke="#c57681"/><path d="m289 298.44 13 75 85-44z" fill="#ba6e84" stroke="#ba6e84"/><path d="m483 373.44h-181l994 3z" fill="#b75063" stroke="#b75063"/><path d="m1739 355.44-75-5-70 4z" fill="#872667" stroke="#872667"/><path d="m1594 354.44 70-4-78-67z" fill="#8b2766" stroke="#8b2766"/><path d="m1741 290.44-52-68-20 40z" fill="#852568" stroke="#852568"/><path d="m1669 262.44 20-40-113-32z" fill="#8f2963" stroke="#8f2963"/><path d="m1678-112.56-18 42 77-54z" fill="#c88d9a" stroke="#c88d9a"/><path d="m314-23.557-26 40 125 14z" fill="#fcc8a7" stroke="#fcc8a7"/><path d="m249-28.557 39 45 26-40z" fill="#fbd7bb" stroke="#fbd7bb"/><path d="m1660-70.557 4 123 99-76z" fill="#c88d9a" stroke="#c88d9a"/><path d="m1664 52.443-4-123-48 91z" fill="#cc8890" stroke="#cc8890"/><path d="m371-114.56-37-40-20 131z" fill="#fcd3b5" stroke="#fcd3b5"/><path d="m789-154.56h-455l318 15z" fill="#fcbf9c" stroke="#fcbf9c"/><path d="m1412-155.56-1078 1h455z" fill="#fbac84" stroke="#fbac84"/><path d="m289 298.44-52 52 65 23z" fill="#ba7289" stroke="#ba7289"/><path d="m249 94.443 79 70 8-34z" fill="#ef8864" stroke="#ef8864"/><path d="m288 16.443-39 78 87 36z" fill="#faa076" stroke="#faa076"/><path d="m224 51.443 25 43 39-78z" fill="#fcb38d" stroke="#fcb38d"/><path d="m250 186.44-22 70 61 42z" fill="#ba748b" stroke="#ba748b"/><path d="m171 166.44 57 90 22-70z" fill="#cd7f84" stroke="#cd7f84"/><path d="m1754 136.44-90-84 9 73z" fill="#c0444b" stroke="#c0444b"/><path d="m1660-70.557 18-42-86-35z" fill="#cc8f98" stroke="#cc8f98"/><path d="m249 94.443-78 72 79 20z" fill="#e78a72" stroke="#e78a72"/><path d="m225-134.56 24 106 65 5z" fill="#fbd9bd" stroke="#fbd9bd"/><path d="m228 256.44 9 94 52-52z" fill="#ba748b" stroke="#ba748b"/><path d="m249-28.557-25 80 64-35z" fill="#fccbab" stroke="#fccbab"/><path d="m1689 222.44 65-86-81-11z" fill="#a93454" stroke="#a93454"/><path d="m1664 350.44 77-60-72-28z" fill="#852668" stroke="#852668"/><path d="m1765 193.44-11-57-65 86z" fill="#9d2e5b" stroke="#9d2e5b"/><path d="m1741 290.44 24-97-76 29z" fill="#842569" stroke="#842569"/><path d="m1664 350.44 75 5 2-65z" fill="#842569" stroke="#842569"/><path d="m1510 368.44 229-13-145-1z" fill="#8b2766" stroke="#8b2766"/><path d="m1836 201.44-71-8 82 82z" fill="#852568" stroke="#852568"/><path d="m162 119.44 87-25-25-43z" fill="#faa278" stroke="#faa278"/><path d="m162 119.44 9 47 78-72z" fill="#f2916d" stroke="#f2916d"/><path d="m228 256.44-63 72 72 22z" fill="#ba778f" stroke="#ba778f"/><path d="m1754 136.44 17-120-107 36z" fill="#c35d65" stroke="#c35d65"/><path d="m1857 108.44-86-92-17 120z" fill="#bd4e5b" stroke="#bd4e5b"/><path d="m1771 16.443-8-40-99 76z" fill="#c67d89" stroke="#c67d89"/><path d="m1678-112.56 59-12-145-23z" fill="#ca8e99" stroke="#ca8e99"/><path d="m1763-23.557-26-101-77 54z" fill="#c68c9b" stroke="#c68c9b"/><path d="m334-154.56-109 20 89 111z" fill="#fbd7ba" stroke="#fbd7ba"/><path d="m249-28.557-108 32 83 48z" fill="#fcd2b3" stroke="#fcd2b3"/><path d="m141 3.443 21 116 62-68z" fill="#fcb792" stroke="#fcb792"/><path d="m144 244.44 84 12-57-90z" fill="#c37d8d" stroke="#c37d8d"/><path d="m144 244.44 21 84 63-72z" fill="#ba7992" stroke="#ba7992"/><path d="m237 350.44-144 12 209 11z" fill="#ba778f" stroke="#ba778f"/><path d="m99 222.44 45 22 27-78z" fill="#c8838d" stroke="#c8838d"/><path d="m162 119.44-63 103 72-56z" fill="#dd8b80" stroke="#dd8b80"/><path d="m225-134.56-64 87 88 19z" fill="#fbddc2" stroke="#fbddc2"/><path d="m1765 193.44 71 8-82-65z" fill="#9d2f5b" stroke="#9d2f5b"/><path d="m1771 16.443 78 3-86-43z" fill="#c18293" stroke="#c18293"/><path d="m1763-23.557 61-74-87-27z" fill="#c28b9e" stroke="#c28b9e"/><path d="m1847 275.44-82-82-24 97z" fill="#7f236b" stroke="#7f236b"/><path d="m161-47.557-20 51 108-32z" fill="#fbdfc4" stroke="#fbdfc4"/><path d="m44-58.557 30 78 67-16z" fill="#f9e6ce" stroke="#f9e6ce"/><path d="m225-134.56-63 27-1 60z" fill="#fbdfc5" stroke="#fbdfc5"/><path d="m1739 355.44 97-28-95-37z" fill="#80246b" stroke="#80246b"/><path d="m1836 327.44 11-52-106 15z" fill="#7e236c" stroke="#7e236c"/><path d="m1900 91.443-43 17 76 86z" fill="#ab3553" stroke="#ab3553"/><path d="m1836 201.44 21-93-103 28z" fill="#a93454" stroke="#a93454"/><path d="m77 253.44 16 109 72-34z" fill="#ba7f98" stroke="#ba7f98"/><path d="m43 85.443 56 137 63-103z" fill="#eb957b" stroke="#eb957b"/><path d="m77 253.44 22-31-95-31z" fill="#c28698" stroke="#c28698"/><path d="m1857 108.44-8-89-78-3z" fill="#be6676" stroke="#be6676"/><path d="m1839-69.557-15-28-61 74z" fill="#c08a9f" stroke="#c08a9f"/><path d="m1849 19.443-10-89-76 46z" fill="#bf8a9f" stroke="#bf8a9f"/><path d="m77 253.44 88 75-21-84z" fill="#ba7d96" stroke="#ba7d96"/><path d="m165 328.44-72 34 144-12z" fill="#ba7b93" stroke="#ba7b93"/><path d="m99 222.44-22 31 67-9z" fill="#ba7f99" stroke="#ba7f99"/><path d="m74 19.443 88 100-21-116z" fill="#fcc19e" stroke="#fcc19e"/><path d="m44-58.557 97 62 20-51z" fill="#fae4cb" stroke="#fae4cb"/><path d="m1849 19.443 58-52-68-37z" fill="#bc88a1" stroke="#bc88a1"/><path d="m1857 108.44 47-52-55-37z" fill="#bb5d6e" stroke="#bb5d6e"/><path d="m1933 194.44-76-86-21 93z" fill="#9c2e5c" stroke="#9c2e5c"/><path d="m1933 194.44-97 7 11 74z" fill="#81246b" stroke="#81246b"/><path d="m1900 91.443 4-35-47 52z" fill="#b84d5f" stroke="#b84d5f"/><path d="m74 19.443-31 66 119 34z" fill="#fcb48d" stroke="#fcb48d"/><path d="m77 253.44-73 71 89 38z" fill="#b9839d" stroke="#b9839d"/><path d="m-22 27.443 6 73 59-15z" fill="#fcbc99" stroke="#fcbc99"/><path d="m162-107.56-83-19 82 79z" fill="#fae2c9" stroke="#fae2c9"/><path d="m225-134.56-146 8 83 19z" fill="#fae1c7" stroke="#fae1c7"/><path d="m334-154.56-255 28 146-8z" fill="#fbddc2" stroke="#fbddc2"/><path d="m1904 56.443 3-89-58 52z" fill="#bb7990" stroke="#bb7990"/><path d="m1839-69.557 44-77-59 49z" fill="#bd89a1" stroke="#bd89a1"/><path d="m1932 272.44 1-78-86 81z" fill="#77216f" stroke="#77216f"/><path d="m1900 91.443 90 44-86-79z" fill="#b6465a" stroke="#b6465a"/><path d="m1904 56.443 68-74-65-15z" fill="#ba7f99" stroke="#ba7f99"/><path d="m1836 327.44 96-55-85 3z" fill="#79216e" stroke="#79216e"/><path d="m1739 355.44 179 8-82-36z" fill="#7c226d" stroke="#7c226d"/><path d="m1510 368.44 408-5-179-8z" fill="#832569" stroke="#832569"/><path d="m1296 376.44 622-13-408 5z" fill="#8d2864" stroke="#8d2864"/><path d="m1918 363.44 14-91-96 55z" fill="#78216f" stroke="#78216f"/><path d="m1907-32.557-24-114-44 77z" fill="#ba88a1" stroke="#ba88a1"/><path d="m1824-97.557 59-49-146 22z" fill="#bf8a9f" stroke="#bf8a9f"/><path d="m1737-124.56 146-22-291-1z" fill="#c58c9c" stroke="#c58c9c"/><path d="m1592-147.56 291 1-471-9z" fill="#cd8f98" stroke="#cd8f98"/><path d="m79-126.56-35 68 117 11z" fill="#f9e5cd" stroke="#f9e5cd"/><path d="m-16 100.44 20 91 39-106z" fill="#f4a07e" stroke="#f4a07e"/><path d="m43 85.443-39 106 95 31z" fill="#e09487" stroke="#e09487"/><path d="m4 191.44-8 55 81 7z" fill="#be879e" stroke="#be879e"/><path d="m-4 246.44 8 78 73-71z" fill="#b985a0" stroke="#b985a0"/><path d="m-22 27.443 65 58 31-66z" fill="#fccaaa" stroke="#fccaaa"/><path d="m4 191.44-74 15 66 40z" fill="#c68c9b" stroke="#c68c9b"/><path d="m1907-32.557 103-106-127-8z" fill="#b987a2" stroke="#b987a2"/><path d="m1933 194.44 57-59-90-44z" fill="#a73355" stroke="#a73355"/><path d="m2017 215.44-27-80-57 59z" fill="#942b60" stroke="#942b60"/><path d="m1998 261.44-65-67-1 78z" fill="#77216f" stroke="#77216f"/><path d="m1983 19.443-11-37-68 74z" fill="#ba758c" stroke="#ba758c"/><path d="m44-58.557-66 86 96-8z" fill="#fae6ce" stroke="#fae6ce"/><path d="m-15-53.557-7 81 66-86z" fill="#f8edd7" stroke="#f8edd7"/><path d="m1990 135.44-7-116-79 37z" fill="#b8566a" stroke="#b8566a"/><path d="m1989 346.44 9-85-66 11z" fill="#77216f" stroke="#77216f"/><path d="m1990 135.44 27 80-34-196z" fill="#af3651" stroke="#af3651"/><path d="m-1-123.56-14 70 59-5z" fill="#f8ecd6" stroke="#f8ecd6"/><path d="m1918 363.44 71-17-57-74z" fill="#77216f" stroke="#77216f"/><path d="m79-126.56-80 3 45 65z" fill="#f9ead3" stroke="#f9ead3"/><path d="m-80-135.56 79 12 80-3z" fill="#f8edd7" stroke="#f8edd7"/><path d="m1989 346.44 28-131-19 46z" fill="#77216f" stroke="#77216f"/><path d="m1998 261.44 19-46-84-21z" fill="#7f236c" stroke="#7f236c"/><path d="m-4 246.44-87 108 95-30z" fill="#b987a2" stroke="#b987a2"/><path d="m-77 107.44 7 99 74-15z" fill="#df978c" stroke="#df978c"/><path d="m-77 107.44 81 84-20-91z" fill="#f09f81" stroke="#f09f81"/><path d="m-63 36.443 47 64-6-73z" fill="#fcc6a5" stroke="#fcc6a5"/><path d="m-63 36.443 41-9 7-81z" fill="#fae4cb" stroke="#fae4cb"/><path d="m-78-71.557 15 108 48-90z" fill="#f8edd7" stroke="#f8edd7"/><path d="m-63 36.443-14 71 61-7z" fill="#fcb791" stroke="#fcb791"/><path d="m2017 215.44-7-354-27 158z" fill="#ba6e83" stroke="#ba6e83"/><path d="m1983 19.443 27-158-38 121z" fill="#b987a2" stroke="#b987a2"/><path d="m1972-17.557 38-121-103 106z" fill="#b987a2" stroke="#b987a2"/><path d="m-119 251.44 28 103 87-108z" fill="#b987a2" stroke="#b987a2"/><path d="m4 324.44-95 30 184 8z" fill="#b987a2" stroke="#b987a2"/><path d="m93 362.44-184-8 393 19z" fill="#ba7f99" stroke="#ba7f99"/><path d="m-119 251.44 115-5-66-40z" fill="#bb88a1" stroke="#bb88a1"/><path d="m-77 107.44-42 144 49-45z" fill="#d49293" stroke="#d49293"/><path d="m-63 36.443-15-108 1 179z" fill="#fbd8bc" stroke="#fbd8bc"/><path d="m-1-123.56-77 52 63 18z" fill="#f8edd7" stroke="#f8edd7"/><path d="m-78-71.557-41 323 42-144z" fill="#fbae87" stroke="#fbae87"/><path d="m-78-71.557-2-64-39 387z" fill="#fbdec3" stroke="#fbdec3"/><path d="m-1-123.56-79-12 2 64z" fill="#f8edd7" stroke="#f8edd7"/><path d="m334-154.56-414 19 159 9z" fill="#fae4cc" stroke="#fae4cc"/></g></svg>
