<?xml version="1.0" encoding="UTF-8" standalone="no"?>
<!-- Generator: Adobe Illustrator 16.0.4, SVG Export Plug-In . SVG Version: 6.00 Build 0)  -->

<svg
   xmlns:dc="http://purl.org/dc/elements/1.1/"
   xmlns:cc="http://creativecommons.org/ns#"
   xmlns:rdf="http://www.w3.org/1999/02/22-rdf-syntax-ns#"
   xmlns:svg="http://www.w3.org/2000/svg"
   xmlns="http://www.w3.org/2000/svg"
   xmlns:sodipodi="http://sodipodi.sourceforge.net/DTD/sodipodi-0.dtd"
   xmlns:inkscape="http://www.inkscape.org/namespaces/inkscape"
   version="1.1"
   id="ubuntu__x5F__white"
   x="0px"
   y="0px"
   width="725.28534"
   height="63.659004"
   viewBox="0 0 725.28537 63.659002"
   enable-background="new 0 0 425.197 209.764"
   xml:space="preserve"
   sodipodi:docname="ubuntu_white_hex_su-no_padding-Verein.svg"
   inkscape:version="0.92.4 5da689c313, 2019-01-14"><metadata
   id="metadata39"><rdf:RDF><cc:Work
       rdf:about=""><dc:format>image/svg+xml</dc:format><dc:type
         rdf:resource="http://purl.org/dc/dcmitype/StillImage" /><dc:title></dc:title></cc:Work></rdf:RDF></metadata><defs
   id="defs37" /><sodipodi:namedview
   pagecolor="#ffffff"
   bordercolor="#666666"
   borderopacity="1"
   objecttolerance="10"
   gridtolerance="10"
   guidetolerance="10"
   inkscape:pageopacity="0"
   inkscape:pageshadow="2"
   inkscape:window-width="1680"
   inkscape:window-height="874"
   id="namedview35"
   showgrid="false"
   fit-margin-top="0"
   fit-margin-left="0"
   fit-margin-right="0"
   fit-margin-bottom="0"
   inkscape:zoom="0.70345316"
   inkscape:cx="350.78098"
   inkscape:cy="95.312256"
   inkscape:window-x="0"
   inkscape:window-y="27"
   inkscape:window-maximized="1"
   inkscape:current-layer="g22"
   inkscape:pagecheckerboard="true"
   showguides="true"
   inkscape:guide-bbox="true"><sodipodi:guide
     position="33.933001,42.976003"
     orientation="0,1"
     id="guide4562"
     inkscape:locked="false" /></sodipodi:namedview>
<g
   id="g2"
   transform="translate(-70.867,-73.050999)">
</g>
<g
   id="g4"
   transform="translate(-70.867,-73.050999)">
</g>
<g
   id="g6"
   transform="translate(-70.867,-73.050999)">
</g>
<g
   id="g8"
   transform="translate(-70.867,-73.050999)">
</g>
<g
   id="g32"
   transform="translate(-70.867,-73.050999)">
	<g
   id="g22">
		<path
   d="m 104.798,134.53 c -1.725,0.432 -3.999,0.889 -6.826,1.374 -2.83,0.483 -6.102,0.726 -9.817,0.726 -3.23,0 -5.952,-0.472 -8.159,-1.413 -2.209,-0.941 -3.986,-2.274 -5.332,-3.998 -1.348,-1.724 -2.316,-3.757 -2.908,-6.101 -0.594,-2.341 -0.889,-4.939 -0.889,-7.795 V 93.734 h 7.513 v 21.973 c 0,5.117 0.808,8.779 2.424,10.986 1.616,2.211 4.334,3.314 8.159,3.314 0.809,0 1.642,-0.029 2.505,-0.083 0.86,-0.053 1.67,-0.122 2.425,-0.202 0.752,-0.081 1.439,-0.161 2.059,-0.242 0.619,-0.08 1.064,-0.173 1.334,-0.283 V 93.734 h 7.514 v 40.796 z"
   id="path10"
   inkscape:connector-curvature="0"
   style="fill:#ffffff" />
		<path
   d="m 123.134,95.591 c 0.915,-0.592 2.304,-1.211 4.161,-1.857 1.857,-0.646 3.999,-0.969 6.422,-0.969 3.016,0 5.696,0.539 8.039,1.615 2.342,1.078 4.322,2.584 5.938,4.523 1.614,1.939 2.839,4.256 3.675,6.947 0.834,2.695 1.253,5.656 1.253,8.888 0,3.392 -0.5,6.45 -1.494,9.168 -0.999,2.72 -2.412,5.021 -4.242,6.907 -1.832,1.885 -4.039,3.34 -6.625,4.362 -2.584,1.023 -5.493,1.535 -8.725,1.535 -3.502,0 -6.598,-0.244 -9.289,-0.728 -2.693,-0.485 -4.902,-0.97 -6.625,-1.454 V 74.347 l 7.513,-1.293 v 22.537 z m 0,33.606 c 0.755,0.216 1.818,0.42 3.192,0.605 1.373,0.191 3.082,0.284 5.129,0.284 4.039,0 7.271,-1.334 9.693,-3.999 2.425,-2.666 3.637,-6.45 3.637,-11.349 0,-2.153 -0.216,-4.173 -0.646,-6.062 -0.432,-1.883 -1.132,-3.514 -2.102,-4.885 -0.969,-1.375 -2.222,-2.451 -3.756,-3.232 -1.534,-0.781 -3.38,-1.172 -5.533,-1.172 -2.049,0 -3.932,0.352 -5.654,1.051 -1.727,0.701 -3.045,1.428 -3.96,2.182 z"
   id="path12"
   inkscape:connector-curvature="0"
   style="fill:#ffffff" />
		<path
   d="m 194.546,134.53 c -1.725,0.432 -4,0.889 -6.826,1.374 -2.827,0.483 -6.1,0.726 -9.816,0.726 -3.23,0 -5.95,-0.472 -8.158,-1.413 -2.209,-0.941 -3.986,-2.274 -5.331,-3.998 -1.348,-1.724 -2.315,-3.757 -2.909,-6.101 -0.593,-2.341 -0.889,-4.939 -0.889,-7.795 V 93.734 h 7.512 v 21.973 c 0,5.117 0.809,8.779 2.424,10.986 1.617,2.211 4.336,3.314 8.159,3.314 0.81,0 1.644,-0.029 2.505,-0.083 0.859,-0.053 1.668,-0.122 2.424,-0.202 0.754,-0.081 1.44,-0.161 2.061,-0.242 0.618,-0.08 1.062,-0.173 1.331,-0.283 V 93.734 h 7.514 v 40.796 z"
   id="path14"
   inkscape:connector-curvature="0"
   style="fill:#ffffff" />
		<path
   d="m 205.37,94.947 c 1.723,-0.432 4.01,-0.889 6.867,-1.375 2.852,-0.484 6.138,-0.727 9.854,-0.727 3.34,0 6.113,0.473 8.32,1.414 2.208,0.943 3.972,2.262 5.293,3.959 1.317,1.695 2.246,3.729 2.786,6.098 0.538,2.373 0.808,4.984 0.808,7.837 v 23.588 h -7.513 v -21.973 c 0,-2.584 -0.176,-4.791 -0.525,-6.624 -0.351,-1.833 -0.929,-3.313 -1.737,-4.442 -0.808,-1.133 -1.885,-1.953 -3.231,-2.465 -1.346,-0.514 -3.018,-0.768 -5.007,-0.768 -0.811,0 -1.645,0.027 -2.504,0.08 -0.862,0.055 -1.686,0.121 -2.464,0.203 -0.784,0.08 -1.481,0.176 -2.102,0.281 -0.62,0.109 -1.063,0.189 -1.333,0.242 v 35.464 h -7.512 z"
   id="path16"
   inkscape:connector-curvature="0"
   style="fill:#ffffff" />
		<path
   d="m 256.665,93.734 h 15.914 v 6.301 h -15.914 v 19.388 c 0,2.1 0.161,3.84 0.485,5.212 0.324,1.372 0.809,2.451 1.454,3.229 0.646,0.781 1.452,1.333 2.423,1.656 0.97,0.324 2.1,0.487 3.392,0.487 2.314,0 4.147,-0.258 5.494,-0.771 1.345,-0.511 2.262,-0.874 2.748,-1.09 l 1.614,6.141 c -0.755,0.378 -2.088,0.863 -3.999,1.453 -1.912,0.593 -4.078,0.889 -6.502,0.889 -2.856,0 -5.212,-0.362 -7.07,-1.089 -1.856,-0.729 -3.351,-1.817 -4.482,-3.273 -1.131,-1.453 -1.925,-3.243 -2.382,-5.372 -0.46,-2.126 -0.688,-4.59 -0.688,-7.391 V 82.021 l 7.513,-1.293 z"
   id="path18"
   inkscape:connector-curvature="0"
   style="fill:#ffffff" />
		<path
   d="m 313.455,134.53 c -1.726,0.432 -3.999,0.889 -6.826,1.374 -2.827,0.483 -6.101,0.726 -9.814,0.726 -3.232,0 -5.952,-0.472 -8.161,-1.413 -2.209,-0.941 -3.986,-2.274 -5.33,-3.998 -1.348,-1.724 -2.316,-3.757 -2.91,-6.101 -0.592,-2.341 -0.889,-4.939 -0.889,-7.795 V 93.734 h 7.515 v 21.973 c 0,5.117 0.808,8.779 2.424,10.986 1.614,2.211 4.334,3.314 8.159,3.314 0.807,0 1.641,-0.029 2.504,-0.083 0.859,-0.053 1.667,-0.122 2.422,-0.202 0.754,-0.081 1.441,-0.161 2.061,-0.242 0.617,-0.08 1.063,-0.173 1.334,-0.283 V 93.734 h 7.513 v 40.796 z"
   id="path20"
   inkscape:connector-curvature="0"
   style="fill:#ffffff" />
	<flowRoot
   xml:space="preserve"
   id="flowRoot22"
   style="font-style:normal;font-weight:normal;font-size:40px;line-height:1.25;font-family:sans-serif;letter-spacing:0px;word-spacing:0px;fill:#000000;fill-opacity:1;stroke:none"
   transform="matrix(1.4677468,0,0,1.4677468,633.58728,266.60938)"><flowRegion
     id="flowRegion24"><rect
       id="rect26"
       width="413.13467"
       height="82.425896"
       x="-185.96086"
       y="-126.32263" /></flowRegion><flowPara
     id="flowPara28"
     style="font-style:normal;font-variant:normal;font-weight:normal;font-stretch:normal;font-family:ubuntu;-inkscape-font-specification:ubuntu;fill:#ffffff">Deutschland e.V.</flowPara></flowRoot></g>
	<g
   id="g30">
		<circle
   cx="337.36499"
   cy="90.016998"
   r="16.966"
   id="circle24"
   style="fill:#ffffff" />
		<g
   id="g28">
			<path
   d="m 328.784,90.017 c 0,1.144 -0.928,2.071 -2.071,2.071 -1.145,0 -2.072,-0.928 -2.072,-2.071 0,-1.145 0.928,-2.073 2.072,-2.073 1.143,0 2.071,0.928 2.071,2.073 z m 11.79,10.075 c 0.571,0.991 1.838,1.33 2.829,0.758 0.991,-0.572 1.331,-1.839 0.757,-2.831 -0.571,-0.991 -1.838,-1.33 -2.828,-0.758 -0.992,0.572 -1.332,1.839 -0.758,2.831 z m 3.586,-18.079 c 0.574,-0.991 0.234,-2.258 -0.757,-2.83 -0.991,-0.572 -2.258,-0.232 -2.829,0.759 -0.574,0.991 -0.234,2.258 0.758,2.831 0.99,0.57 2.258,0.231 2.828,-0.76 z m -7.012,2.094 c 3.088,0 5.621,2.368 5.886,5.385 l 2.999,-0.046 c -0.143,-2.244 -1.115,-4.261 -2.614,-5.749 -0.795,0.307 -1.716,0.265 -2.509,-0.194 -0.797,-0.458 -1.292,-1.236 -1.424,-2.078 -0.746,-0.202 -1.529,-0.311 -2.338,-0.311 -1.418,0 -2.758,0.333 -3.948,0.922 l 1.458,2.62 c 0.758,-0.352 1.602,-0.549 2.49,-0.549 z m -5.91,5.91 c 0,-2 0.994,-3.767 2.514,-4.836 l -1.539,-2.573 c -1.783,1.19 -3.112,3.008 -3.673,5.137 0.663,0.534 1.089,1.354 1.089,2.272 0,0.918 -0.426,1.737 -1.089,2.271 0.561,2.129 1.89,3.947 3.673,5.138 l 1.539,-2.573 c -1.52,-1.071 -2.514,-2.837 -2.514,-4.836 z m 5.91,5.908 c -0.889,0 -1.732,-0.197 -2.49,-0.548 l -1.458,2.62 c 1.19,0.59 2.53,0.921 3.948,0.921 0.809,0 1.592,-0.107 2.338,-0.311 0.132,-0.842 0.627,-1.619 1.424,-2.078 0.793,-0.458 1.714,-0.5 2.509,-0.193 1.499,-1.488 2.472,-3.506 2.614,-5.75 l -2.999,-0.047 c -0.264,3.02 -2.798,5.386 -5.886,5.386 z"
   id="path26"
   inkscape:connector-curvature="0" />
		</g>
	</g>
</g>
</svg>