<?xml version="1.0" encoding="UTF-8"?>
<svg id="ubuntu__x5F__white" width="725.29" height="63.659" enable-background="new 0 0 425.197 209.764" version="1.1" viewBox="0 0 725.29 63.659" xml:space="preserve" xmlns="http://www.w3.org/2000/svg" xmlns:cc="http://creativecommons.org/ns#" xmlns:dc="http://purl.org/dc/elements/1.1/" xmlns:rdf="http://www.w3.org/1999/02/22-rdf-syntax-ns#"><metadata><rdf:RDF><cc:Work rdf:about=""><dc:format>image/svg+xml</dc:format><dc:type rdf:resource="http://purl.org/dc/dcmitype/StillImage"/><dc:title/></cc:Work></rdf:RDF></metadata>
<g transform="translate(-70.867 -73.051)">
<g fill="#fff">
<path d="m104.8 134.53c-1.725 0.432-3.999 0.889-6.826 1.374-2.83 0.483-6.102 0.726-9.817 0.726-3.23 0-5.952-0.472-8.159-1.413-2.209-0.941-3.986-2.274-5.332-3.998-1.348-1.724-2.316-3.757-2.908-6.101-0.594-2.341-0.889-4.939-0.889-7.795v-23.589h7.513v21.973c0 5.117 0.808 8.779 2.424 10.986 1.616 2.211 4.334 3.314 8.159 3.314 0.809 0 1.642-0.029 2.505-0.083 0.86-0.053 1.67-0.122 2.425-0.202 0.752-0.081 1.439-0.161 2.059-0.242 0.619-0.08 1.064-0.173 1.334-0.283v-35.463h7.514v40.796z"/>
<path d="m123.13 95.591c0.915-0.592 2.304-1.211 4.161-1.857s3.999-0.969 6.422-0.969c3.016 0 5.696 0.539 8.039 1.615 2.342 1.078 4.322 2.584 5.938 4.523 1.614 1.939 2.839 4.256 3.675 6.947 0.834 2.695 1.253 5.656 1.253 8.888 0 3.392-0.5 6.45-1.494 9.168-0.999 2.72-2.412 5.021-4.242 6.907-1.832 1.885-4.039 3.34-6.625 4.362-2.584 1.023-5.493 1.535-8.725 1.535-3.502 0-6.598-0.244-9.289-0.728-2.693-0.485-4.902-0.97-6.625-1.454v-60.181l7.513-1.293v22.537zm0 33.606c0.755 0.216 1.818 0.42 3.192 0.605 1.373 0.191 3.082 0.284 5.129 0.284 4.039 0 7.271-1.334 9.693-3.999 2.425-2.666 3.637-6.45 3.637-11.349 0-2.153-0.216-4.173-0.646-6.062-0.432-1.883-1.132-3.514-2.102-4.885-0.969-1.375-2.222-2.451-3.756-3.232s-3.38-1.172-5.533-1.172c-2.049 0-3.932 0.352-5.654 1.051-1.727 0.701-3.045 1.428-3.96 2.182z"/>
<path d="m194.55 134.53c-1.725 0.432-4 0.889-6.826 1.374-2.827 0.483-6.1 0.726-9.816 0.726-3.23 0-5.95-0.472-8.158-1.413-2.209-0.941-3.986-2.274-5.331-3.998-1.348-1.724-2.315-3.757-2.909-6.101-0.593-2.341-0.889-4.939-0.889-7.795v-23.589h7.512v21.973c0 5.117 0.809 8.779 2.424 10.986 1.617 2.211 4.336 3.314 8.159 3.314 0.81 0 1.644-0.029 2.505-0.083 0.859-0.053 1.668-0.122 2.424-0.202 0.754-0.081 1.44-0.161 2.061-0.242 0.618-0.08 1.062-0.173 1.331-0.283v-35.463h7.514v40.796z"/>
<path d="m205.37 94.947c1.723-0.432 4.01-0.889 6.867-1.375 2.852-0.484 6.138-0.727 9.854-0.727 3.34 0 6.113 0.473 8.32 1.414 2.208 0.943 3.972 2.262 5.293 3.959 1.317 1.695 2.246 3.729 2.786 6.098 0.538 2.373 0.808 4.984 0.808 7.837v23.588h-7.513v-21.973c0-2.584-0.176-4.791-0.525-6.624-0.351-1.833-0.929-3.313-1.737-4.442-0.808-1.133-1.885-1.953-3.231-2.465-1.346-0.514-3.018-0.768-5.007-0.768-0.811 0-1.645 0.027-2.504 0.08-0.862 0.055-1.686 0.121-2.464 0.203-0.784 0.08-1.481 0.176-2.102 0.281-0.62 0.109-1.063 0.189-1.333 0.242v35.464h-7.512z"/>
<path d="m256.66 93.734h15.914v6.301h-15.914v19.388c0 2.1 0.161 3.84 0.485 5.212s0.809 2.451 1.454 3.229c0.646 0.781 1.452 1.333 2.423 1.656 0.97 0.324 2.1 0.487 3.392 0.487 2.314 0 4.147-0.258 5.494-0.771 1.345-0.511 2.262-0.874 2.748-1.09l1.614 6.141c-0.755 0.378-2.088 0.863-3.999 1.453-1.912 0.593-4.078 0.889-6.502 0.889-2.856 0-5.212-0.362-7.07-1.089-1.856-0.729-3.351-1.817-4.482-3.273-1.131-1.453-1.925-3.243-2.382-5.372-0.46-2.126-0.688-4.59-0.688-7.391v-37.483l7.513-1.293z"/>
<path d="m313.46 134.53c-1.726 0.432-3.999 0.889-6.826 1.374-2.827 0.483-6.101 0.726-9.814 0.726-3.232 0-5.952-0.472-8.161-1.413s-3.986-2.274-5.33-3.998c-1.348-1.724-2.316-3.757-2.91-6.101-0.592-2.341-0.889-4.939-0.889-7.795v-23.589h7.515v21.973c0 5.117 0.808 8.779 2.424 10.986 1.614 2.211 4.334 3.314 8.159 3.314 0.807 0 1.641-0.029 2.504-0.083 0.859-0.053 1.667-0.122 2.422-0.202 0.754-0.081 1.441-0.161 2.061-0.242 0.617-0.08 1.063-0.173 1.334-0.283v-35.463h7.513v40.796z"/>
<g transform="matrix(1.4677 0 0 1.4677 633.59 266.61)" aria-label="Deutschland e.V."><path d="m-159.76-102.9q0 3.6-1.12 6.28-1.12 2.64-3.16 4.4-2.04 1.72-4.88 2.6-2.84 0.84-6.24 0.84-1.68 0-3.72-0.16-2-0.12-3.64-0.52v-26.88q1.64-0.4 3.64-0.52 2.04-0.16 3.72-0.16 3.4 0 6.24 0.88 2.84 0.84 4.88 2.6 2.04 1.72 3.16 4.4 1.12 2.64 1.12 6.24zm-15.08 10.72q5.52 0 8.24-2.8 2.72-2.84 2.72-7.92t-2.72-7.88q-2.72-2.84-8.24-2.84-1.64 0-2.56 0.04-0.88 0.04-1.24 0.08v21.2q0.36 0.04 1.24 0.08 0.92 0.04 2.56 0.04z"/><path d="m-155.4-99.383q0-2.76 0.8-4.8 0.8-2.08 2.12-3.44t3.04-2.04 3.52-0.68q4.2 0 6.44 2.64 2.24 2.6 2.24 7.96 0 0.24 0 0.64 0 0.36-0.04 0.68h-14.24q0.24 3.24 1.88 4.92t5.12 1.68q1.96 0 3.28-0.32 1.36-0.36 2.04-0.68l0.52 3.12q-0.68 0.36-2.4 0.76-1.68 0.4-3.84 0.4-2.72 0-4.72-0.8-1.96-0.84-3.24-2.28t-1.92-3.4q-0.6-2-0.6-4.36zm14.28-2.04q0.04-2.52-1.28-4.12-1.28-1.64-3.56-1.64-1.28 0-2.28 0.52-0.96 0.48-1.64 1.28t-1.08 1.84q-0.36 1.04-0.48 2.12z"/><path d="m-115.32-89.623q-1.28 0.32-3.4 0.68-2.08 0.36-4.84 0.36-2.4 0-4.04-0.68-1.64-0.72-2.64-2t-1.44-3q-0.44-1.76-0.44-3.88v-11.68h3.72v10.88q0 3.8 1.2 5.44t4.04 1.64q0.6 0 1.24-0.04t1.2-0.08q0.56-0.08 1-0.12 0.48-0.08 0.68-0.16v-17.56h3.72z"/><path d="m-105.44-109.82h7.88v3.12h-7.88v9.6q0 1.56 0.24 2.6 0.24 1 0.72 1.6 0.48 0.56 1.2 0.8t1.68 0.24q1.68 0 2.68-0.36 1.04-0.4 1.44-0.56l0.72 3.08q-0.56 0.28-1.96 0.68-1.4 0.44-3.2 0.44-2.12 0-3.52-0.52-1.36-0.56-2.2-1.64t-1.2-2.64q-0.32-1.6-0.32-3.68v-18.56l3.72-0.64z"/><path d="m-88.001-91.703q2.28 0 3.36-0.6 1.12-0.6 1.12-1.92 0-1.36-1.08-2.16t-3.56-1.8q-1.2-0.48-2.32-0.96-1.08-0.52-1.88-1.2t-1.28-1.64-0.48-2.36q0-2.76 2.04-4.36 2.04-1.64 5.56-1.64 0.88 0 1.76 0.12 0.88 0.08 1.64 0.24 0.76 0.12 1.32 0.28 0.6 0.16 0.92 0.28l-0.68 3.2q-0.6-0.32-1.88-0.64-1.28-0.36-3.08-0.36-1.56 0-2.72 0.64-1.16 0.6-1.16 1.92 0 0.68 0.24 1.2 0.28 0.52 0.8 0.96 0.56 0.4 1.36 0.76t1.92 0.76q1.48 0.56 2.64 1.12 1.16 0.52 1.96 1.24 0.84 0.72 1.28 1.76 0.44 1 0.44 2.48 0 2.88-2.16 4.36-2.12 1.48-6.08 1.48-2.76 0-4.32-0.48-1.56-0.44-2.12-0.68l0.68-3.2q0.64 0.24 2.04 0.72t3.72 0.48z"/><path d="m-65.961-88.543q-2.52 0-4.44-0.8-1.88-0.8-3.2-2.24-1.28-1.44-1.92-3.4-0.64-2-0.64-4.4t0.68-4.4q0.72-2 2-3.44 1.28-1.48 3.12-2.28 1.88-0.84 4.16-0.84 1.4 0 2.8 0.24t2.68 0.76l-0.84 3.16q-0.84-0.4-1.96-0.64-1.08-0.24-2.32-0.24-3.12 0-4.8 1.96-1.64 1.96-1.64 5.72 0 1.68 0.36 3.08 0.4 1.4 1.2 2.4 0.84 1 2.12 1.56 1.28 0.52 3.12 0.52 1.48 0 2.68-0.28t1.88-0.6l0.52 3.12q-0.32 0.2-0.92 0.4-0.6 0.16-1.36 0.28-0.76 0.16-1.64 0.24-0.84 0.12-1.64 0.12z"/><path d="m-56.401-89.023v-30.4l3.72-0.64v10.64q1.04-0.4 2.2-0.6 1.2-0.24 2.36-0.24 2.48 0 4.12 0.72 1.64 0.68 2.6 1.96 1 1.24 1.4 3t0.4 3.88v11.68h-3.72v-10.88q0-1.92-0.28-3.28-0.24-1.36-0.84-2.2t-1.6-1.2q-1-0.4-2.48-0.4-0.6 0-1.24 0.08t-1.24 0.2q-0.56 0.08-1.04 0.2-0.44 0.12-0.64 0.2v17.28z"/><path d="m-27.321-88.623q-3.44-0.08-4.88-1.48t-1.44-4.36v-24.96l3.72-0.64v25q0 0.92 0.16 1.52t0.52 0.96 0.96 0.56q0.6 0.16 1.48 0.28z"/><path d="m-15.601-91.703q1.32 0 2.32-0.04 1.04-0.08 1.72-0.24v-6.2q-0.4-0.2-1.32-0.32-0.88-0.16-2.16-0.16-0.84 0-1.8 0.12-0.92 0.12-1.72 0.52-0.76 0.36-1.28 1.04-0.52 0.64-0.52 1.72 0 2 1.28 2.8 1.28 0.76 3.48 0.76zm-0.32-18.64q2.24 0 3.76 0.6 1.56 0.56 2.48 1.64 0.96 1.04 1.36 2.52 0.4 1.44 0.4 3.2v13q-0.48 0.08-1.36 0.24-0.84 0.12-1.92 0.24t-2.36 0.2q-1.24 0.12-2.48 0.12-1.76 0-3.24-0.36t-2.56-1.12q-1.08-0.8-1.68-2.08t-0.6-3.08q0-1.72 0.68-2.96 0.72-1.24 1.92-2t2.8-1.12 3.36-0.36q0.56 0 1.16 0.08 0.6 0.04 1.12 0.16 0.56 0.08 0.96 0.16t0.56 0.12v-1.04q0-0.92-0.2-1.8-0.2-0.92-0.72-1.6-0.52-0.72-1.44-1.12-0.88-0.44-2.32-0.44-1.84 0-3.24 0.28-1.36 0.24-2.04 0.52l-0.44-3.08q0.72-0.32 2.4-0.6 1.68-0.32 3.64-0.32z"/><path d="m-1.7613-109.22q1.28-0.32 3.4-0.68t4.88-0.36q2.48 0 4.12 0.72 1.64 0.68 2.6 1.96 1 1.24 1.4 3t0.4 3.88v11.68h-3.72v-10.88q0-1.92-0.28-3.28-0.24-1.36-0.84-2.2t-1.6-1.2q-1-0.4-2.48-0.4-0.6 0-1.24 0.04t-1.24 0.12q-0.56 0.04-1.04 0.12-0.44 0.08-0.64 0.12v17.56h-3.72z"/><path d="m34.639-105.42q-0.68-0.56-1.96-1.08t-2.8-0.52q-1.6 0-2.76 0.6-1.12 0.56-1.84 1.6-0.72 1-1.04 2.4t-0.32 3q0 3.64 1.8 5.64 1.8 1.96 4.8 1.96 1.52 0 2.52-0.12 1.04-0.16 1.6-0.32zm0-14 3.72-0.64v30.44q-1.28 0.36-3.28 0.72t-4.6 0.36q-2.4 0-4.32-0.76t-3.28-2.16-2.12-3.4q-0.72-2.04-0.72-4.56 0-2.4 0.6-4.4 0.64-2 1.84-3.44t2.92-2.24q1.76-0.8 4-0.8 1.8 0 3.16 0.48 1.4 0.48 2.08 0.92z"/><path d="m52.839-99.383q0-2.76 0.8-4.8 0.8-2.08 2.12-3.44t3.04-2.04 3.52-0.68q4.2 0 6.44 2.64 2.24 2.6 2.24 7.96 0 0.24 0 0.64 0 0.36-0.04 0.68h-14.24q0.24 3.24 1.88 4.92t5.12 1.68q1.96 0 3.28-0.32 1.36-0.36 2.04-0.68l0.52 3.12q-0.68 0.36-2.4 0.76-1.68 0.4-3.84 0.4-2.72 0-4.72-0.8-1.96-0.84-3.24-2.28t-1.92-3.4q-0.6-2-0.6-4.36zm14.28-2.04q0.04-2.52-1.28-4.12-1.28-1.64-3.56-1.64-1.28 0-2.28 0.52-0.96 0.48-1.64 1.28t-1.08 1.84q-0.36 1.04-0.48 2.12z"/><path d="m80.758-91.183q0 1.08-0.72 1.88t-1.96 0.8-1.96-0.8-0.72-1.88 0.72-1.88 1.96-0.8 1.96 0.8 0.72 1.88z"/><path d="m105.76-116.74q-1.52 4.4-2.92 8.16-1.36 3.72-2.68 7.08t-2.64 6.44q-1.28 3.04-2.64 6.04h-3.64q-1.36-3-2.68-6.04-1.28-3.08-2.64-6.44-1.32-3.36-2.72-7.08-1.4-3.76-2.88-8.16h4.28q2.16 6.32 4.24 12.16t4.28 10.96q2.2-5.08 4.28-10.92 2.08-5.88 4.2-12.2z"/><path d="m110.76-91.183q0 1.08-0.72 1.88t-1.96 0.8-1.96-0.8-0.72-1.88 0.72-1.88 1.96-0.8 1.96 0.8 0.72 1.88z"/></g></g>
<circle cx="337.36" cy="90.017" r="16.966" fill="#fff"/>
<path d="m328.78 90.017c0 1.144-0.928 2.071-2.071 2.071-1.145 0-2.072-0.928-2.072-2.071 0-1.145 0.928-2.073 2.072-2.073 1.143 0 2.071 0.928 2.071 2.073zm11.79 10.075c0.571 0.991 1.838 1.33 2.829 0.758s1.331-1.839 0.757-2.831c-0.571-0.991-1.838-1.33-2.828-0.758-0.992 0.572-1.332 1.839-0.758 2.831zm3.586-18.079c0.574-0.991 0.234-2.258-0.757-2.83s-2.258-0.232-2.829 0.759c-0.574 0.991-0.234 2.258 0.758 2.831 0.99 0.57 2.258 0.231 2.828-0.76zm-7.012 2.094c3.088 0 5.621 2.368 5.886 5.385l2.999-0.046c-0.143-2.244-1.115-4.261-2.614-5.749-0.795 0.307-1.716 0.265-2.509-0.194-0.797-0.458-1.292-1.236-1.424-2.078-0.746-0.202-1.529-0.311-2.338-0.311-1.418 0-2.758 0.333-3.948 0.922l1.458 2.62c0.758-0.352 1.602-0.549 2.49-0.549zm-5.91 5.91c0-2 0.994-3.767 2.514-4.836l-1.539-2.573c-1.783 1.19-3.112 3.008-3.673 5.137 0.663 0.534 1.089 1.354 1.089 2.272s-0.426 1.737-1.089 2.271c0.561 2.129 1.89 3.947 3.673 5.138l1.539-2.573c-1.52-1.071-2.514-2.837-2.514-4.836zm5.91 5.908c-0.889 0-1.732-0.197-2.49-0.548l-1.458 2.62c1.19 0.59 2.53 0.921 3.948 0.921 0.809 0 1.592-0.107 2.338-0.311 0.132-0.842 0.627-1.619 1.424-2.078 0.793-0.458 1.714-0.5 2.509-0.193 1.499-1.488 2.472-3.506 2.614-5.75l-2.999-0.047c-0.264 3.02-2.798 5.386-5.886 5.386z"/>
</g>
</svg>
